<svg xmlns="http://www.w3.org/2000/svg" width="200" height="200" fill="none" viewBox="0 0 200 200">
<!-- SVG created with Arrow, by QuiverAI (https://quiver.ai) -->
  <path d="m194.2 82.21-92.25-73.1c-1.85-1.55-3.68-1.55-5.23-0.19l-90.55 73.26c-1.55 1.27-1.17 3.85 0 5.22l6.61 8.53c0.98 1.27 1.88 1.55 2.95 1.65l4.34 0.48c1.27 0.19 2.34-0.57 3.11-1.35l4.63-3.96-0.11 67.87c-0.57 0.19-1.06 1.15-1.06 2.21v22.97c0 3.11 2.14 4.66 4.08 4.66h23.48c1.06 0 1.64-0.2 1.83-0.77h20.44c1.16 0 3.31-3.89 3.31-3.89h42.5c1.16 2.14 2.22 3.89 3.19 3.89h6.13c0.77 0 1.25-0.97 1.25-1.55h12c0 0.77 0.58 1.55 1.25 1.55h22.59c3.11 0 4.27-2.53 4.27-3.89v-23.94c0-1.16-0.58-1.93-1.06-2.12l0.4-64.01 4.64 1.18c1.07 0.77 2.04 0.86 3 0.58l5.75-0.97c1.26-0.29 2.03-1.46 2.52-2.13l5.99-7.87c1.16-1.56 1.16-3.31 0-4.31z" fill="#541A0B" stroke="#35160C" stroke-miterlimit="10" stroke-width="1.2"/>
  <path d="m100.9 9.78 92.51 72.75c1.36 1.16 1.17 3.21 0.1 4.58l-6.9 8.82c-0.97 1.36-2.72 1.08-4.37 1.27l-2.73 0.29c-1.36 0.19-2.42-0.87-3.29-1.75l-76.2-59.14-78.34 60.11c-1.07 0.87-2.43 1.06-3.79 0.68l-3.21-0.68c-1.55-0.29-2.33-1.65-3.4-3.01l-5.01-6.79c-1.16-1.65-0.97-3.8 0.48-4.91l90.36-72.51c1.26-1.16 2.52-0.96 3.79 0.29z" fill="#D67835" stroke="#471A08" stroke-miterlimit="10" stroke-width="1.2"/>
  <path d="m99.35 35.54-50.43 40.62-0.58 81.83 1.94 2.14v8.73l17.84 1.55v17.53h71.07l8.54-0.58v-18.11l-6.51-0.19 1.95-0.78 6.12 0.29 0.68-11.54 1.16 0.38 0.58-81.35-51.68-40.62-0.68 0.1z" fill="#F7DDB0" stroke="#B2724B" stroke-miterlimit="10" stroke-width="1.2"/>
  <path d="m134.7 69.16 14.28 10.76-0.29 78.17-1.46 10.38-8.17 0.58 0.68 0.87 4.15 2.24v14.81l-11.06 0.19-0.19-68.23 1.26 0.19 0.88-1.26-0.19-7.68-0.87-0.77-67.38 0.29-1.16 1.06v9.21l1.46 1.36 0.48 48.7-10.96 0.09 0.48-0.97-6.7-0.39v-10.86l-1.74-0.68 0.58-77.59 50.44-39.47 35.48 29z" fill="#B2724B" fill-opacity=".39" stroke="#B2724B" stroke-miterlimit="10" stroke-width="1.2"/>
  <path d="m76.09 24.87 12.2 13.82v5.3l32.64-18.73-19.07-15.86c-1.65-1.55-4.08-1.45-5.54 0l-20.23 15.47z" fill="#B8C1C6" stroke="#35160C" stroke-miterlimit="10" stroke-width="1.2"/>
  <path d="m106.1 13.08 14.82 11.99-10.17 14.01-10.74-8.92 6.91-6.7c1.84-2.43 1.36-7.55-0.82-10.38z" fill="#B8C1C6" stroke="#35160C" stroke-miterlimit="10" stroke-width="1.2"/>
  <path d="m100.1 30.06 10.84 8.73v4.43l-11.33-7.68v-5.48h0.49z" fill="#838F96" stroke="#35160C" stroke-miterlimit="10" stroke-width="1.2"/>
  <path d="m76.96 25.45 13.25-5.39-2.83 7.58 1.95 9.48-1.27 1.65-11.1-13.32z" fill="#D0D8DB"/>
  <path d="m107.1 13.56 9.79 7.86-2.64 4.71-7.87-6.07 0.72-6.5z" fill="#D0D8DB"/>
  <path d="m99.35 21.22c2.33 0 2.71-1.84 2.71-2.71 0-1.75-1.34-2.79-2.71-2.79-1.65 0-2.71 1.36-2.71 2.72 0 1.55 1.06 2.78 2.71 2.78z" fill="#838F96" stroke="#35160C" stroke-miterlimit="10" stroke-width=".75"/>
  <path d="m112.2 30.74c1.65 0 2.13-1.16 2.13-2.03 0-1.36-1.06-2.04-2.13-2.04-1.36 0-2.13 1.06-2.13 2.04 0 1.16 0.87 2.03 2.13 2.03z" fill="#838F96" stroke="#35160C" stroke-miterlimit="10" stroke-width=".75"/>
  <path d="m87.38 30.36c1.65 0 2.23-1.16 2.23-2.04 0-1.36-1.16-2.13-2.23-2.13-1.36 0-2.13 1.16-2.13 2.13 0 1.26 1.07 2.04 2.13 2.04z" fill="#838F96" stroke="#35160C" stroke-miterlimit="10" stroke-width=".75"/>
  <path d="m120 29.09 72.68 53.64c1.46 1.16 1.17 3.49-0.38 5.05l-1.85 2.04-10.36-9.02 9.98 9.99-2.34 3.4-67.54-61.89-6.9 3.92 6.71-7.13z" fill="#CC6A28" stroke="#89481F" stroke-miterlimit="10" stroke-width=".75"/>
  <path d="m77.25 28.61-69.21 55.58-0.98 2.53 2.15 3.01 16.62-14.31-12.77 14.5 1.95 5.43 71.01-57.45-2.63-3.13-21.45 11.15 19.79-13.14-4.48-4.17z" fill="#CC6A28" stroke="#89481F" stroke-miterlimit="10" stroke-width=".75"/>
  <path d="m121.9 33.46 19.78 15.76-12.96-9.57-6.82-6.19z" fill="#B25426"/>
  <path d="m146.9 53.96 30.15 18.2-10.17-2.14-19.98-16.06z" fill="#B25426"/>
  <path d="m113.8 36.81 45.08 37.1-6.03 0.29-40.9-33.97 1.85-3.42z" fill="#B25426"/>
  <path d="m53.63 54.15-25.52 20.76 6.12-2.14 19.4-18.62z" fill="#B25426"/>
  <path d="m44.04 74.81 41.88-37 1.36 5.11-40.12 33.75-3.12-1.86z" fill="#B25426"/>
  <path d="m27.43 88.17 16.42-13.14 3.77 1.07-0.48 21.96-1.95 0.48-17.47-0.96-0.29-9.41z" fill="#B8C1C6" stroke="#35160C" stroke-miterlimit="10" stroke-width=".75"/>
  <path d="m151.6 76 4.54-1.16 15.75 13.62 0.48 9.7-20.87 0.38 0.1-22.54z" fill="#B8C1C6" stroke="#35160C" stroke-miterlimit="10" stroke-width=".75"/>
  <path d="m27.81 98.45-0.09 61.1 1.84 0.67h14.29l3.48-2.14v-58.96l-2.14-1.25-17.38 0.58z" fill="#D67835" stroke="#35160C" stroke-miterlimit="10" stroke-width=".75"/>
  <path d="m151.6 98.64 0.57 59.73 2.73 1.75h16.51l0.29-61.48h-20.1z" fill="#D67835" stroke="#35160C" stroke-miterlimit="10" stroke-width=".75"/>
  <path d="m26.85 161.1-0.19 23.94c0 2.92 1.84 4.76 4.08 4.76l24.53-0.1 0.68-17.92-2.83-0.87-7.77-0.29 0.57-11.54-1.65 0.38-16.16-0.29c-0.87 0-1.26 0.77-1.26 1.93z" fill="#B8C1C6" stroke="#35160C" stroke-miterlimit="10" stroke-width=".75"/>
  <path d="m151.3 158.3v11.74l-7.97 1.56v18.11h24.76c2.82 0 4.66-2.24 4.66-4.77l0.19-23.26c0-1.35-0.58-2.22-1.54-2.22l-16.42-0.19-3.68-0.97z" fill="#B8C1C6" stroke="#35160C" stroke-miterlimit="10" stroke-width=".75"/>
  <path d="m32.69 167.4c0 1.75 1.26 2.33 2.23 2.33 1.45 0 2.32-1.26 2.32-2.33 0-1.45-1.16-2.32-2.23-2.32-1.35 0-2.32 1.16-2.32 2.32z" fill="#838F96" stroke="#35160C" stroke-miterlimit="10" stroke-width=".75"/>
  <path d="m31.72 182.1c0 1.85 1.36 2.52 2.52 2.52 1.65 0 2.62-1.36 2.62-2.52 0-1.55-1.26-2.52-2.52-2.52-1.55 0-2.62 1.26-2.62 2.52z" fill="#838F96" stroke="#35160C" stroke-miterlimit="10" stroke-width=".75"/>
  <path d="m46.95 182.7c0 1.36 0.97 2.03 1.94 2.03 1.26 0 2.03-1.16 2.03-2.03 0-1.26-1.06-2.03-2.03-2.03-1.16 0-1.94 1.06-1.94 2.03z" fill="#838F96" stroke="#35160C" stroke-miterlimit="10" stroke-width=".75"/>
  <path d="m162.7 167.5c0 1.55 1.16 2.22 2.23 2.22 1.45 0 2.22-1.26 2.22-2.22 0-1.36-1.15-2.23-2.22-2.23-1.36 0-2.23 1.16-2.23 2.23z" fill="#838F96" stroke="#35160C" stroke-miterlimit="10" stroke-width=".75"/>
  <path d="m162.3 182.2c0 1.65 1.26 2.42 2.43 2.42 1.45 0 2.42-1.36 2.42-2.42 0-1.46-1.26-2.43-2.42-2.43-1.46 0-2.43 1.26-2.43 2.43z" fill="#838F96" stroke="#35160C" stroke-miterlimit="10" stroke-width=".75"/>
  <path d="m148.3 182.7c0 1.26 0.97 1.94 1.84 1.94 1.26 0 2.03-1.16 2.03-2.04 0-1.26-1.06-2.03-2.03-2.03-1.26 0-1.84 1.16-1.84 2.13z" fill="#838F96" stroke="#35160C" stroke-miterlimit="10" stroke-width=".75"/>
  <path d="m30.06 77.06c2.14 0 2.53-1.65 2.53-2.62 0-1.55-1.26-2.52-2.53-2.52-1.55 0-2.52 1.36-2.52 2.52 0 1.46 1.16 2.62 2.52 2.62z" fill="#838F96" stroke="#35160C" stroke-miterlimit="10" stroke-width=".75"/>
  <path d="m169.9 77.06c2.04 0 2.71-1.65 2.71-2.81 0-1.65-1.36-2.62-2.62-2.62-1.55 0-2.61 1.36-2.61 2.62 0 1.65 1.26 2.81 2.52 2.81z" fill="#838F96" stroke="#35160C" stroke-miterlimit="10" stroke-width=".75"/>
  <path d="m35.31 94.48c1.74 0 2.42-1.16 2.42-2.22 0-1.45-1.16-2.23-2.23-2.23-1.36 0-2.23 1.16-2.23 2.23 0 1.36 1.16 2.22 2.04 2.22z" fill="#838F96" stroke="#35160C" stroke-miterlimit="10" stroke-width=".75"/>
  <path d="m164.8 94.48c1.65 0 2.42-1.25 2.42-2.41 0-1.46-1.25-2.33-2.32-2.33-1.45 0-2.32 1.16-2.32 2.33 0 1.45 1.16 2.41 2.22 2.41z" fill="#838F96" stroke="#35160C" stroke-miterlimit="10" stroke-width=".75"/>
  <path d="m42.22 99.02-0.48 58.58" stroke="#B25426" stroke-miterlimit="10" stroke-width=".75"/>
  <path d="m33.85 99.12-1.06 21.34 2.13-21.44" stroke="#B25426" stroke-miterlimit="10" stroke-width=".75"/>
  <path d="m32.11 141.7-0.97 16.96" stroke="#B25426" stroke-miterlimit="10" stroke-width=".75"/>
  <path d="m39.21 111-1.06 28.23-0.97-11.94 2.03-16.29z" fill="#B25426"/>
  <path d="m44.72 136.1v20.96l-1.36 1.06 1.36-22.02z" fill="#B25426"/>
  <path d="m167.8 104-1.55 28.67-0.58-11.85 2.13-16.82z" fill="#B25426"/>
  <path d="m160.8 126.3-1.65 9.71 1.85 22.11" stroke="#B25426" stroke-miterlimit="10" stroke-width=".75"/>
  <path d="m157 76.78-0.29 20.32" stroke="#838F96" stroke-miterlimit="10" stroke-width=".75"/>
  <path d="m56.43 174.6 10.18 0.1" stroke="#B25426" stroke-miterlimit="10" stroke-width=".75"/>
  <path d="m56.62 181.7 9.89 0.1" stroke="#B25426" stroke-miterlimit="10" stroke-width=".75"/>
  <path d="m133.2 174.7h10.48" stroke="#B25426" stroke-miterlimit="10" stroke-width=".75"/>
  <path d="m133.1 181.2 10.65 0.19" stroke="#B25426" stroke-miterlimit="10" stroke-width=".75"/>
  <path d="m65.83 110.3-0.29 9.41 1.75 1.55 0.29 67.96c0 0.77 0.87 1.16 1.45 1.16h7.65c1.26 0 3.1-4.56 3.1-4.56v-63.1h51.91v65.24c0 1.06-0.48 1.84-1.64 1.84h-6.91c-1.36 0-2.23-2.43-3.39-3.98v-63.88l12.63-0.19 1.95-1.65v-9.22c0-1.06-0.97-1.84-2.04-1.84l-65 0.19c-0.97 0-1.46 0.39-1.46 1.07z" fill="#D67835" stroke="#471A08" stroke-miterlimit="10" stroke-width="1.2"/>
  <path d="m67.87 122.1 10.07-0.19v66.98" stroke="#89481F" stroke-miterlimit="10" stroke-width=".75"/>
  <path d="m121 121.8 10.26-0.09v66.11" stroke="#89481F" stroke-miterlimit="10" stroke-width=".75"/>
  <path d="m69.91 127.4c0 1.36 1.06 2.03 2.03 2.03 1.36 0 2.13-1.16 2.13-2.03 0-1.26-1.07-2.03-2.13-2.03-1.26 0-2.03 1.16-2.03 2.03z" fill="#838F96" stroke="#35160C" stroke-miterlimit="10" stroke-width=".75"/>
  <path d="m125.4 127.4c0 1.36 1.07 2.03 2.03 2.03 1.36 0 2.13-1.16 2.13-2.03 0-1.26-1.06-2.03-2.13-2.03-1.26 0-2.03 1.16-2.03 2.03z" fill="#838F96" stroke="#35160C" stroke-miterlimit="10" stroke-width=".75"/>
  <path d="m70.01 115.6c0 1.55 1.26 2.22 2.22 2.22 1.36 0 2.23-1.16 2.23-2.22 0-1.36-1.16-2.13-2.23-2.13-1.35 0-2.22 1.16-2.22 2.13z" fill="#838F96" stroke="#35160C" stroke-miterlimit="10" stroke-width=".75"/>
  <path d="m126.4 115.3c0 1.45 1.06 2.13 2.03 2.13 1.26 0 2.03-1.16 2.03-2.13 0-1.36-1.16-2.13-2.13-2.13-1.26 0-1.93 1.16-1.93 2.13z" fill="#838F96" stroke="#35160C" stroke-miterlimit="10" stroke-width=".75"/>
  <path d="m70.39 184.8c0 1.26 0.97 1.94 1.84 1.94 1.26 0 2.04-1.16 2.04-2.03 0-1.26-1.07-2.03-2.04-2.03-1.26 0-1.84 1.16-1.84 2.12z" fill="#838F96" stroke="#35160C" stroke-miterlimit="10" stroke-width=".75"/>
  <path d="m125.8 184.8c0 1.26 0.97 1.94 1.84 1.94 1.26 0 1.93-1.16 1.93-2.03 0-1.26-1.06-2.03-2.03-2.03-1.16 0-1.74 1.16-1.74 2.12z" fill="#838F96" stroke="#35160C" stroke-miterlimit="10" stroke-width=".75"/>
  <path d="m129.2 136.6-0.77 24.24-0.97-24.82" stroke="#B25426" stroke-miterlimit="10" stroke-width=".75"/>
  <path d="m125.8 168 0.48 17.72" stroke="#B25426" stroke-miterlimit="10" stroke-width=".75"/>
  <path d="m72.71 129.9 1.26 23.17-0.77-23.46" stroke="#B25426" stroke-miterlimit="10" stroke-width=".75"/>
  <path d="m72.81 178.9v7.38" stroke="#B25426" stroke-miterlimit="10" stroke-width=".75"/>
  <path d="m69.32 112.9 18.35 0.77-13.7 0.78-4.65-1.55z" fill="#B25426"/>
  <path d="m88.35 113.5 29.35-0.48-7.77 1.55-21.58-1.07z" fill="#B25426"/>
  <path d="m93.96 116.4 21.2-0.29-3.67 0.96-17.53-0.67z" fill="#B25426"/>
  <path d="m66.51 66.53c0.67-1.95 1.93-2.62 3.68-2.81l58.94-0.19c3.12 0 4.57 1.74 4.67 5.25v27.84c0 5.2-1.75 7.34-5.34 7.34l-56.91-0.19c-4.36 0-5.72-3.4-5.72-6.76v-26.78c0-1.45 0.1-2.42 0.68-3.7z" fill="#541A0B" stroke="#35160C" stroke-miterlimit="10" stroke-width=".75"/>
  <path d="m66.8 67.81c0.39-2.14 1.75-2.92 3.88-3.11l58.26-0.19c3.02 0 4.18 1.26 4.28 4.27v4.94l-6.41 0.39 6.31 1.45c0.48 3.78 0.48 11.84-0.39 15.05l-7.67 0.58 7.47 1.16-0.19 4.56-9.88 0.19 9.69 1.06c-0.19 3.22-1.64 4.38-4.86 4.47l-55.45-0.19c-3.58 0-5.13-2.33-5.23-5.24l-0.1-4.94 8.44-0.78-8.54-0.87c-0.57-3.5-0.67-11.75 0.29-15.15l8.54-0.87-8.73-0.67 0.29-6.11z" fill="#F0C282" stroke="#A76236" stroke-miterlimit="10" stroke-width=".75"/>
  <path d="m74.36 52.71 0.68-1.26 1.74 0.19 0.29 0.48v10.86l-2.71 0.19v-10.46z" fill="#B8C1C6" stroke="#35160C" stroke-miterlimit="10" stroke-width="1.2"/>
  <path d="m121.7 51.16 1.26-0.48 1.55 0.77 0.48 0.77v10.66l-3.01-0.1-0.28-11.62z" fill="#B8C1C6" stroke="#35160C" stroke-miterlimit="10" stroke-width="1.2"/>
  <path d="m77.06 69.75 1.36-0.97 4.35 6.53 3.68-6.63 1.65 0.48-3.87 7.42-0.29 4.17-2.53-0.1v-3.59l-4.35-6.73v-0.58z" fill="#602D13" stroke="#602D13" stroke-miterlimit="10" stroke-width=".75"/>
  <path d="m88.35 72.11h1.45v4.85c0 1.36 0.58 2.14 1.94 2.14 1.16 0 1.84-1.26 1.84-2.62v-4.37h2.13v8.54l-1.45 0.19-0.49-1.36c-0.68 0.78-1.45 1.26-2.71 1.26-2.23 0-3.2-1.55-3.2-3.69l0.49-4.94z" fill="#602D13" stroke="#602D13" stroke-miterlimit="10" stroke-width=".75"/>
  <path d="m98.73 72.11 1.36 0.1 0.38 1.36c0.87-0.97 1.45-1.65 2.91-1.65 1.35 0 2.23 0.68 2.8 1.84 0.87-1.26 1.65-1.74 2.91-1.74 1.84 0 2.9 1.45 2.9 3.69v4.84l-2.04 0.2v-4.46c0-1.26-0.58-2.13-1.64-2.13-1.26 0-1.84 1.06-1.84 2.52v3.78l-1.94 0.1v-4.46c0-1.16-0.77-1.94-1.64-1.94-1.36 0-2.04 1.06-2.04 2.61v3.69l-2.13 0.1v-8.45h0.01z" fill="#602D13" stroke="#602D13" stroke-miterlimit="10" stroke-width=".75"/>
  <path d="m118.3 71.92h1.07c2.13 0 3 1.46 3 3.79v1.26l-6.12 0.19c0 1.36 0.77 1.93 2.32 1.93h3.02l0.2 1.07c-0.58 0.48-1.65 0.67-3.3 0.67-2.92 0-4.57-1.65-4.57-4.55 0.01-2.62 1.46-4.36 4.38-4.36zm-2.24 4.08h4.07v-0.58c0-1.16-0.67-1.74-1.84-1.74-1.45-0.01-2.23 0.86-2.23 2.32z" fill="#602D13" stroke="#602D13" stroke-miterlimit="10" stroke-width=".75"/>
  <path d="m86.79 84.23c2.04 0 2.91 0.58 3.39 1.06l-0.77 1.85c-0.68-0.68-1.35-0.87-2.71-0.87-2.73 0-4.38 1.95-4.38 4.28 0 2.53 1.85 4.28 4.18 4.28 1.45 0 2.42-0.58 3.19-1.26l0.48 2.05c-0.96 0.87-2.22 1.25-3.96 1.25-3.49 0-6.02-2.62-6.02-6.12 0-3.61 2.63-6.52 6.6-6.52z" fill="#602D13" stroke="#602D13" stroke-miterlimit="10" stroke-width=".75"/>
  <path d="m96.68 87.73c1.45 0 2.23 0.68 2.81 1.55l0.29-1.45 1.45 0.09v8.36l-1.55 0.19-0.29-1.45c-0.77 1.06-1.64 1.55-2.9 1.55-2.53 0-4.28-1.85-4.28-4.47 0-2.53 1.75-4.37 4.47-4.37zm0.09 7c1.65 0 2.62-1.16 2.62-2.71s-1.06-2.61-2.62-2.61c-1.55 0-2.61 1.16-2.61 2.61 0 1.55 1.06 2.71 2.61 2.71z" fill="#602D13" stroke="#602D13" stroke-miterlimit="10" stroke-width=".75"/>
  <path d="m103.6 87.14c0-2.53 1.26-3.49 3.01-3.49h1.74v1.84h-1.16c-1.06 0-1.54 0.68-1.54 1.84v0.58l3.11 0.1v1.45l-3.11 0.1v6.83l-1.95 0.19v-6.92h-1.16v-1.55l1.07-0.19v-0.78h-0.01z" fill="#602D13" stroke="#602D13" stroke-miterlimit="10" stroke-width=".75"/>
  <path d="m115.4 87.92h0.68c2.04 0 2.91 1.36 2.91 3.01v1.36l-6.31 0.19c0 1.36 0.97 2.14 2.52 2.14h2.53l0.19 1.16c-0.57 0.39-1.44 0.68-2.9 0.68-2.72 0-4.57-1.74-4.57-4.37 0.01-2.52 1.56-4.17 4.95-4.17zm-2.81 3.5h4.36v-0.68c0-1.06-0.87-1.65-2.03-1.65-1.55 0-2.33 0.87-2.33 2.33z" fill="#602D13" stroke="#602D13" stroke-miterlimit="10" stroke-width=".75"/>
  <path d="m83.78 128.8c3.31-0.09 8.15 3.6 9.99 3.6 1.85-0.67 2.82-0.87 4.47-0.87 2.62 0 5.92 0.97 7.38 1.17 2.13-1.07 5.44-3.8 10.29-3.89 1.36 0.97 2.13 13.3 2.03 16.22 0.97 3.31 0.78 8.82 0.1 10.28l-1.26-0.58c-0.58 3.68-2.62 6.21-6.4 6.5l1.36-3.11c-1.65 1.84-3.89 3.2-7.66 3.2h-8.06c-3.21 0-6.89-1.07-8.74-3.11l0.78 1.75c-3.11-0.58-5.83-2.91-6.99-6.69l-0.78 1.16c1.36-3.21 1.56-4.76 2.43-7.39-0.49-3.4-0.68-13.96 1.06-18.24z" fill="#99593D" stroke="#35160C" stroke-miterlimit="10" stroke-width="1.2"/>
  <path d="m85.14 131.2c2.04-0.19 5.05 3.4 5.34 4.17l-4.75 6.63c-1.46-2.91-1.65-8.21-0.59-10.8z" fill="#FF94A6" stroke="#35160C" stroke-miterlimit="10" stroke-width=".75"/>
  <path d="m114.8 131c-2.14-0.19-6.5 3.88-7.08 4.55l6.31 6.63c2.04-2.43 2.14-8.4 0.77-11.18z" fill="#FF94A6" stroke="#35160C" stroke-miterlimit="10" stroke-width=".75"/>
  <path d="m88.15 146.5c1.56 0.29 10.1-0.39 14.07-6.73 1.06 3.41 3.4 6.72 6.89 7.78 0.77 2.33 1.06 10.29-3.3 12.53h-10.18c-3.97-0.68-8.15-2.82-7.48-13.58z" fill="#FEFDFD" stroke="#A76236" stroke-miterlimit="10" stroke-width=".75"/>
  <path d="m92.41 183.4c-0.29 3.4 0.49 7.67 3.31 7.58 2.53-0.1 2.34-2.04 2.43-6.02l-5.74-1.56z" fill="#51292A" stroke="#35160C" stroke-miterlimit="10" stroke-width=".75"/>
  <path d="m101.2 184.2c-0.1 3.01-0.1 5.83 3.01 5.73 2.73-0.09 2.53-2.33 2.92-6.12l-5.93 0.39z" fill="#51292A" stroke="#35160C" stroke-miterlimit="10" stroke-width=".75"/>
  <path d="m93.77 162.2-1.75 1.55c-3.01 3.4-6.98 9.38-6.59 11.42 0.58 1.94 3.01 1.56 4.27-0.09l4.45-6.1-0.38-6.78z" fill="#FEFDFD" stroke="#471A08" stroke-miterlimit="10" stroke-width=".75"/>
  <path d="m106.7 162.2 1.75 1.26c2.14 1.75 6.69 7.47 6.69 10.58-0.19 2.14-2.33 3.11-4.28 0.97l-5.21-6.81 1.05-6z" fill="#FEFDFD" stroke="#471A08" stroke-miterlimit="10" stroke-width=".75"/>
  <path d="m92.21 168.7 1.85-1.45 1.45-5.04h7.96l2.34 5.24 3.96 3.21 0.68 11.77c-2.53 2.23-12.89 3.69-20.27 0.68-1.16-0.58 0.49-6.76 2.03-14.41z" fill="#F0D5B8" stroke="#35160C" stroke-miterlimit="10" stroke-width="1.2"/>
  <path d="m94.93 173.3h8.93v3.78c0 2.24-1.84 3.5-3.98 3.5h-0.68c-2.43 0-4.18-1.45-4.18-3.69l-0.09-3.59z" fill="#FEFDFD" stroke="#A76236" stroke-miterlimit="10" stroke-width=".75"/>
  <path d="m96.88 163.3 0.97 1.94h3.58l0.78-2.13" stroke="#602D13" stroke-miterlimit="10" stroke-width="1.2"/>
  <path d="m100.8 168.3c0.55 0 1-0.34 1-0.76s-0.45-0.76-1-0.76-1 0.34-1 0.76 0.45 0.76 1 0.76z" fill="#602D13"/>
  <path d="m97.46 154.8c0.96 0.97 1.93 1.26 3 0.39 0.48-0.39 0.67-0.58 1.15-0.39" stroke="#000" stroke-linecap="round" stroke-miterlimit="10" stroke-width="1.2"/>
  <path d="m92.71 141.7c1.06 0 1.45-0.48 1.45-1.35s-0.68-1.26-1.35-1.26c-0.87 0-1.35 0.58-1.35 1.26-0.01 0.77 0.47 1.35 1.25 1.35z" fill="#D59469"/>
  <path d="m108.1 157.3c1.58 0 2.19-0.93 2.19-1.98 0-1.36-1.06-2.13-2.13-2.13-1.36 0-2.13 1.06-2.13 2.13 0 1.35 1.16 1.98 2.07 1.98z" fill="#F4B0B5"/>
  <path d="m92.03 157.7c1.58 0 2.19-0.93 2.19-1.99 0-1.35-1.06-2.13-2.13-2.13-1.36 0-2.13 1.16-2.13 2.23 0 1.26 1.16 1.89 2.07 1.89z" fill="#F4B0B5"/>
  <path d="m105.6 138.1 2.82 0.96 1.45 1.85" stroke="#A76236" stroke-miterlimit="10" stroke-width=".75"/>
  <path d="m94.64 144.1 2.63-1.16" stroke="#A76236" stroke-miterlimit="10" stroke-width=".75"/>
  <path d="m92.8 152.6c1.16 0 1.74-0.67 1.74-1.74 0-1.06-0.77-1.54-1.55-1.54-1.06 0-1.64 0.77-1.64 1.64 0 0.97 0.68 1.64 1.45 1.64z" fill="#3A1E1A"/>
  <path d="m105.7 153.2c1.06 0 1.55-0.77 1.55-1.64 0-0.97-0.78-1.45-1.45-1.45-0.97 0-1.55 0.77-1.55 1.55 0 0.96 0.68 1.54 1.45 1.54z" fill="#3A1E1A"/>
</svg>