<svg xmlns="http://www.w3.org/2000/svg" width="200" height="200" fill="none" viewBox="0 0 200 200">
<!-- SVG created with Arrow, by QuiverAI (https://quiver.ai) -->
  <path d="m10.08 24.7c0-9.52 7.33-17.09 16.71-17.09 9.6 0 15.04 7.4 15.04 17.68 0 5.6-1.45 10.94-1.06 14.76 0.5 5.01 2.42 7.84 5.42 7.84 4.42 0 7.53-6 7.05-14.27l-0.7-11.45c-0.52-8.66 3.16-13.95 9.4-13.95 4.37 0 6.02 1.71 5.39 4.21-1.87 7.53-2.02 9.68-2.02 18.53 0 3.5 0.35 10.15-0.25 20.83-0.95 17.03-8.94 36.97-27.12 36.97-11.09 0-18.06-6.82-18.06-15.03 0-7.35 5.55-12.48 10.76-12.48 5.05 0 6.95 3.46 6.95 5.52 0 2.01-1.1 3.42-2.33 3.42-2.11 0-3.05 1.48-3.05 2.65 0 2.37 2.31 4.02 5.94 3.9 6.71-0.23 12.06-6.63 14.37-20.73-2.11 1.9-5.35 3.27-9.45 3.27-8.22 0-14.57-6.01-14.31-17.12 0.12-5.95 2.01-12.1 2.01-16.01 0-4.52-2.48-7.64-5.7-7.64-2.68 0-4.36 3.35-4.36 5.75 0 2.62 1.44 5.31 4.02 5.31 1.76 0 1.62 1.36 1.41 2.35-0.61 2.96-3.39 4.31-6.82 4.31-6.24 0-9.24-5.27-9.24-11.53z" fill="#471408" stroke="#060000" stroke-miterlimit="10" stroke-width=".7"/>
  <path d="m11.64 24.7c0-9.52 7.15-15.53 15.27-15.53 8.6 0 13.38 5.84 13.38 16.12 0 6.64-1.45 11.98-1.05 15.8 0.51 5.01 2.83 8.52 6.95 8.52 5.53 0 9.64-6.23 9.11-15.99l-0.58-11.45c-0.45-8.66 2.2-12.29 7.22-12.29 4.2 0 4.28 0.88 3.87 2.3-2.26 7.84-2.27 11.9-2.27 19.4 0 3.5 0.43 9.53-0.17 20.21-0.95 17.03-9.56 35.25-25.46 35.25-10.1 0-16.47-6.13-16.47-13.91 0-5.65 4.26-10.05 8.48-10.05 4.27 0 6.32 1.89 6.32 3.9 0 1.48-0.91 1.84-1.58 1.74-3.5-0.5-4.58 2.65-4.58 4.37 0 3.9 3.35 5.8 7.63 5.8 9.38 0 16.8-11.41 17.46-27.71-2.59 3.98-6.29 5.98-10.99 5.98-8.22 0-13.88-6.33-13.47-15.91 0.26-6.38 1.71-11.13 1.71-15.37 0-4.96-2.68-8.76-6.5-8.76-4.02 0-5.98 3.99-5.98 7.05 0 3.27 2.11 5.98 4.69 5.98 1.01 0 0.88 0.51 0.69 1.08-0.71 2.35-2.61 3.28-5.51 3.28-5.52 0-8.17-4.8-8.17-9.81z" fill="#B15A29" stroke="#471408" stroke-miterlimit="10" stroke-width=".7"/>
  <path d="m13.92 24.81c0.17-6.7 3.81-13.07 12.41-13.07 7.36 0 11.48 5.34 11.48 13.58 0 6.31-1.45 12.79-1.05 16.61 0.66 6.38 4.25 10.09 9.3 10.09" stroke="#F6C588" stroke-linecap="round" stroke-miterlimit="10" stroke-width=".7"/>
  <path d="m59.16 11.17 1.03 11.25-0.98 12.11 0.81 9.93-1.29 12.75-3.6 12-6.04 8.72" stroke="#F6C588" stroke-linecap="round" stroke-miterlimit="10" stroke-width=".7"/>
  <path d="m26.54 66.13c1.27-1.11 3.17-1.68 4.65-1.53" stroke="#F6C588" stroke-linecap="round" stroke-miterlimit="10" stroke-width=".7"/>
  <path d="m68.06 30.21c-1-2.76 1.53-5.08 5.85-5.08 6 0 8.18 4.08 7.7 9.84l-0.82 9.64c-0.3 3.57 0.42 6.35 3 6.35 3 0 4.57-4.85 4.42-8.94l-0.33-10.09c-0.17-4.67 2.06-6.8 7.14-6.8 3.71 0 4.97 1.67 4.67 3.43-0.98 5.71-1.52 9.8-1.4 15.89 0.2 9.86 1.2 11.06 2.48 11.68 1.74 0.88 1.04 6.08-4.63 6.68-3.71 0.42-5.53-1.95-6.36-4.36-1.92 2.86-5.07 4.47-8.79 4.47-7.17 0-10.95-5.76-10.47-14l0.75-7.97c0.34-4.53-1.16-7.22-3.21-10.74z" fill="#471408" stroke="#060000" stroke-miterlimit="10" stroke-width=".7"/>
  <path d="m69.7 30.21c-0.94-1.65 0.07-3.7 4.49-3.7 4.73 0 6.22 3.2 5.78 8.46l-0.82 8.94c-0.39 4.52 0.98 8.5 4.22 8.5 4.11 0 5.84-5.05 5.54-10.65l-0.25-9.83c-0.1-3.98 1.31-5.42 5.55-5.42 2.51 0 3.51 0.75 3.21 2.23-0.98 5.16-1.26 9.21-1.14 15.17 0.2 9.86 1.91 12.84 3.53 13.25 0.6 0.16-0.29 3.6-4.58 3.6-4.11 0-5.31-3.6-5.7-6.05-1.67 3.89-4.65 6.1-8.84 6.1-5.9 0-9.06-5.34-8.58-12.71l0.75-8.18c0.34-4.52-1.03-6.89-3.16-9.71z" fill="#B15A29" stroke="#471408" stroke-miterlimit="10" stroke-width=".7"/>
  <path d="m73.03 28.36c2.81 0.07 4.68 1.45 4.68 5.79l-1.37 12.75c-0.26 3.83 1.32 9.46 6.37 9.46" stroke="#F6C588" stroke-linecap="round" stroke-miterlimit="10" stroke-width=".7"/>
  <path d="m94.11 27.95-1.03 5.46-0.26 10.3" stroke="#F6C588" stroke-linecap="round" stroke-miterlimit="10" stroke-width=".7"/>
  <path d="m102 28.3c-1.16-2 1.13-4.82 5.32-4.82 4.72 0 6.12 3.13 6.62 6.38 2.11-3.12 4.99-4.73 8.28-4.73 4.59 0 6.33 2.59 7.24 5.41 2.26-3.43 4.74-5.41 8.38-5.41 6.81 0 9.9 6.38 9.5 14.18l-0.75 8.94c-0.39 5.26 1.28 9.79 3.67 10.27 2.92 0.61 2.75 6.32-4.06 6.69-6.74 0.36-9.89-4.5-9.41-13.6l0.51-8.69c0.24-3.98-0.51-6.5-2.31-6.5-2.81 0-4.06 5.42-4.21 10.35l-0.34 9.07c-0.13 2.91-2.39 3.8-5.63 3.8h-0.57c-3.1 0-5-0.99-4.6-4.11l1.1-12.25c0.35-3.99-0.6-6.86-2.4-6.86-2.81 0-3.59 5.76-3.69 10.28l0.59 10.94c0.15 3.12-1.96 5.17-6.45 5.17-4.11 0-5.78-1.35-5.39-4.7l0.88-11.45c0.53-8.65-0.34-14.84-2.28-18.36z" fill="#471408" stroke="#060000" stroke-miterlimit="10" stroke-width=".7"/>
  <path d="m103.2 27.86c-1.07-1.75 0.2-2.8 3.37-2.8 4.2 0 5.1 2.89 5.45 8.76l0.1 1.09c1.67-5.01 4.93-7.9 9.15-7.9 4.82 0 6.14 2.75 7 7.06 2.21-4.66 4.86-7.06 8.72-7.06 6.38 0 8.72 5.95 8.21 13.74l-0.75 8.37c-0.44 5.69 1.79 10.9 4.57 11.16 1.35 0.13 0.72 2.79-3.44 2.79-5.91 0-7.71-5.61-7.2-12.98l0.32-6.18c0.27-5.04-0.93-8.84-3.95-8.84-4.02 0-5.56 6.29-5.83 12.67l-0.34 7.97c-0.1 2.3-1.11 2.53-4.01 2.53-2.83 0-3.6-0.53-3.33-3.03l0.79-11.45c0.34-5.04-1.13-8.69-3.71-8.69-4.45 0-5.75 7.45-5.85 13.05l0.3 9.04c0.07 2.59-1 3.76-4.39 3.76-2.81 0-3.38-0.71-3.09-3.6l0.89-11.45c0.53-8.65-0.64-14.46-2.98-18.01z" fill="#B15A29" stroke="#471408" stroke-miterlimit="10" stroke-width=".7"/>
  <path d="m106.8 27.01c1.86 0 2.46 1.83 2.76 5.14" stroke="#F6C588" stroke-linecap="round" stroke-miterlimit="10" stroke-width=".7"/>
  <path d="m137.3 27.72c3.29-0.61 5.77 2.01 6.37 6.35" stroke="#F6C588" stroke-linecap="round" stroke-miterlimit="10" stroke-width=".7"/>
  <path d="m142.9 42.73-0.6 9.24c-0.17 2.89 0.85 5.94 2.58 7.24" stroke="#F6C588" stroke-linecap="round" stroke-miterlimit="10" stroke-width=".7"/>
  <path d="m120.4 36.92c1.09 1.95 1.19 5.01 0.92 8.51l-0.57 7.98c-0.15 2 1.16 2.68 3.03 2.68" stroke="#F6C588" stroke-linecap="round" stroke-miterlimit="10" stroke-width=".7"/>
  <path d="m169.3 24.27c7.89 0 10.2 7.65 9.81 12.17-0.72 7.97-8.28 13.57-16.17 13.02 1.87 3.35 4.65 4.45 7.13 4.03 3-0.53 4.87-2.48 6.98-4.68 1.93-1.73 5.09-0.79 4.59 3.93-0.66 6.01-7 10.81-13.91 10.07-10.42-1.12-16.39-8.2-16.39-17.72 0-10.53 6.81-20.82 17.96-20.82zm-0.27 8.94c-3.29-0.8-7 2.8-7.6 10.07 5.28 0 8.74-4.34 8.74-7.37 0-1.45-0.4-2.44-1.14-2.7z" fill="#471408" stroke="#060000" stroke-miterlimit="10" stroke-width=".7"/>
  <path d="m167.7 25.92c8.12 0 9.66 7.04 9.32 11.25-0.75 7.6-8.81 11.85-17 10.34 1.61 5.48 5.07 7.9 9.03 7.55 4.05-0.35 5.98-2.45 8.29-5.17 1.54-1.87 2.36-0.15 1.91 2.47-1.04 5.55-6.77 8.95-12.07 8.35-9.21-1.1-14.03-7.8-14.03-16.8 0-9.17 5.9-17.99 14.55-17.99zm0.56 5.59c-4.39-0.73-8.24 4.36-8.49 13.3 6.91 0 10.55-5.79 10.55-9.2 0-2.2-0.7-3.85-2.06-4.1z" fill="#B15A29" stroke="#471408" stroke-miterlimit="10" stroke-width=".7"/>
  <path d="m172.8 27.37c1.74 0.88 3.1 2.75 3.27 5.34" stroke="#F6C588" stroke-linecap="round" stroke-miterlimit="10" stroke-width=".7"/>
  <path d="m172.4 34.23c-0.72 4.59-4.86 9.38-9.58 9.68" stroke="#F6C588" stroke-linecap="round" stroke-miterlimit="10" stroke-width=".7"/>
  <path d="m57.46 118.8c0 7-5.24 10.79-14.52 10.65l-5.26-0.11-0.89 9.86 0.82 20.1 0.67 9.41c0.44 5.39-4.45 7.04-8.16 7.04-4.2 0-6.2-2.05-5.85-6.58l1.11-14.17 0.34-25.06h-1.11c-7.6 0-11.31 1.17-11.31 6.13 0 1.73-1.21 2.08-2.35 1.73-4.02-0.99-5.95-4.37-5.95-8 0-7.3 5.41-12.64 16.43-12.64l12.33 0.1c8.73 0 15.21-1.35 17.69-4.17 1.84-2.05 3.16-1.17 4.07 0 1.29 1.72 1.94 3.31 1.94 5.71z" fill="#471408" stroke="#060000" stroke-miterlimit="10" stroke-width=".7"/>
  <path d="m7.11 129.8c0-6.38 3.72-10.98 14.14-10.98l12.51 0.1c8.43 0 14.97-2.01 17.45-4.11 1.33-1.13 2.03-1.21 2.6-0.21 0.8 1.45 1.2 2.66 1.05 4.58-0.5 5.76-5.12 8.58-13.21 8.45l-5.76-0.13-1.17 10.61 0.6 19.51 1.04 12.57c0.3 3.23-3.6 4.04-6.6 4.04-3.49 0-4.06-1.29-3.79-4.96l0.88-13.38 0.39-27.98h-2.81c-7.6 0-12.42 1.54-12.42 7.3 0 1.09-0.39 1.22-1.23 0.86-2.34-0.99-3.67-3.21-3.67-6.27z" fill="#B15A29" stroke="#471408" stroke-miterlimit="10" stroke-width=".7"/>
  <path d="m9.22 128.9c0.91-4.85 4.55-7.32 12.88-7.52l11.15-0.2c5.59-0.1 12.94-1.1 18.47-4.02" stroke="#F6C588" stroke-linecap="round" stroke-miterlimit="10" stroke-width=".7"/>
  <path d="m28.92 153 1.26 2.82-1.26 14.98" stroke="#471408" stroke-linecap="round" stroke-miterlimit="10" stroke-width=".7"/>
  <path d="m57.01 180.8c2.47-1.94 4.36-6.79 5.08-12.44-2.16 1.58-4.38 1.99-7.08 1.99-6.6 0-9.94-6.17-9.44-15.17l0.54-7.6c0.2-2.99-0.84-4.5-3.1-6.29-1.62-1.2-0.52-4.96 4.2-4.96 6.71 0 8.28 4.11 7.85 10.06l-0.75 7.97c-0.35 4.02 1.22 6.32 3.48 6.32 2.98 0 4.25-2.99 4-8.33l-0.47-8.11c-0.35-5.26 1.42-7.85 6.39-7.85 4.9 0 6.41 1.73 5.71 4.62-1.29 5.94-0.89 8.43-1.19 17.57-0.62 16.53-5.17 34-19.11 34-7.75 0-11.1-5.49-11.1-9.47 0-5.58 3.92-9.18 7.49-9.18 3.46 0 4.4 1.95 4.4 2.91 0 0.88-1.04 1.29-1.95 1.59-1.35 0.51-1.75 1.29-1.75 1.97 0 1.45 1.55 2.47 3.28 2.47 1.47 0 2.58-1.09 3.52-2.07z" fill="#471408" stroke="#060000" stroke-miterlimit="10" stroke-width=".7"/>
  <path d="m44.08 139.7c1.73-1.55 6.97-0.94 7.88 2.18 1.01 3.63-0.64 8.76-0.81 13.46-0.27 6.1 2.61 9.73 6.04 9.73 5.55 0 7.42-4.08 7.42-9.34l-0.4-11.45c-0.17-4.52 0.75-5.97 4.46-5.97 3.56 0 3.56 0.99 3.09 3.36-1.34 6.51-0.87 9.77-1.47 20.13-1.03 16.66-6.63 28.54-16.68 28.54-6.71 0-9.6-4.45-9.6-7.71 0-4.96 3.2-6.69 5.06-6.69 1.34 0 2.15 0.51 2.45 1.22-2.58 1.38-3.31 2.29-3.31 3.94 0 2.2 2.57 4.15 5.05 4.15 6.51 0 10.03-9.59 10.95-21.3-2 3.25-4.48 4.8-9.1 4.8-6.17 0-8-6.88-7.5-13.99l0.6-6.99c0.34-3.98-0.92-6.8-4.13-8.07z" fill="#B15A29" stroke="#471408" stroke-miterlimit="10" stroke-width=".7"/>
  <path d="m69.01 139.5-1.35 5.54-0.85 18.91-2.26 12.4-4.84 10.02" stroke="#F6C588" stroke-linecap="round" stroke-miterlimit="10" stroke-width=".7"/>
  <path d="m96.84 80.33c0 6.61-5.23 9.63-8.86 9.17-3.37-0.43-3.99-2.79-3.36-4.04 2.37-4.79 0.26-7.28-3.09-7.28-6.32 0-10.61 9.52-10.61 19.97 0 9.63 4.69 17.87 11.72 17.87 4.29 0 6.69-2.82 7.95-4.71 1.32-2.17 5.21-0.85 5.14 3.83-0.07 4.35-5.86 12.63-15.82 12.63-12.95 0-23-11.71-23-27.35 0-16.66 9.9-32.37 25.6-32.37 9.3 0 14.33 6.93 14.33 12.28z" fill="#471408" stroke="#060000" stroke-miterlimit="10" stroke-width=".7"/>
  <path d="m94.91 80.33c0 4.95-4.32 7.71-6.63 7.23-1.74-0.41-2.01-0.93-1.67-1.74 2.06-4.08 0.45-9.21-4.37-9.21-8.3 0-12.92 10.28-12.92 21.54 0 10.63 5.39 19.52 13.44 19.52 4.62 0 7.16-2.75 8.73-5.16 0.84-1.29 2.13-0.41 2.08 1.94-0.1 4.21-6.09 11.21-14.72 11.21-11.44 0-20.04-10.94-20.04-25.35 0-15.19 9-30.39 23.08-30.39 8.45 0 13.02 5.69 13.02 10.41z" fill="#B15A29" stroke="#471408" stroke-miterlimit="10" stroke-width=".7"/>
  <path d="m64.04 100.6c0.27-11.71 4.24-26.26 15.67-28.51" stroke="#F6C588" stroke-linecap="round" stroke-miterlimit="10" stroke-width=".7"/>
  <path d="m66.29 108.9 3.64 9.25 5.11 4.14" stroke="#F6C588" stroke-linecap="round" stroke-miterlimit="10" stroke-width=".7"/>
  <path d="m86.98 73.21c2.87 0.98 4.63 3.28 4.63 5.9" stroke="#F6C588" stroke-linecap="round" stroke-miterlimit="10" stroke-width=".7"/>
  <path d="m97.28 93.61c0-4.72 4.19-8.25 10.83-8.25 8.36 0 13.83 4.35 13.83 13.15l-0.34 9.3c-0.17 4.8 1.09 6.85 3.41 7.73 2.11 0.81 0.91 6.87-4.48 7.17-3.29 0.18-4.98-1.77-5.85-3.97-1.97 2.3-4.7 3.77-8.68 3.77-6.41 0-9.98-5.2-9.98-10.4 0-6.85 4.82-9.34 11.02-12 2.32-0.99 5.2-1.88 5.2-4.1 0-1.65-1.47-2.53-3.11-2.53-1.94 0-2.73 1.09-2.91 2.53-0.34 2.4-1.99 2.7-4.1 2.4-3-0.38-4.84-1.99-4.84-4.8zm15.61 10.55c-4.73 2.69-6.76 4.07-6.76 6.44 0 1.55 0.98 2.16 2.33 2.16 2.48 0 4.42-2.16 4.42-5.78v-2.82h0.01z" fill="#471408" stroke="#060000" stroke-miterlimit="10" stroke-width=".7"/>
  <path d="m99.32 93.61c0-3.7 4-6.29 9.09-6.29 6.64 0 11.16 3.35 11.16 10.83l-0.4 9.07c-0.25 5.67 1.09 8.79 3.87 9.89 0.94 0.35-0.1 2.94-3.81 2.94s-4.85-3.35-5.42-5.5c-1.5 3.73-4.28 5.56-7.99 5.56-4.95 0-7.6-4.21-7.6-8.35 0-5.82 4.29-7.55 9.79-9.95 3.26-1.39 5.8-2.69 5.8-5.51 0-2.62-2.2-4.34-5.08-4.34-3.54 0-4.62 1.85-4.89 3.95-0.23 1.45-4.52 1.45-4.52-2.3zm14.49 7.42c-6.57 3.63-9.7 5.39-9.7 9.6 0 2.82 1.74 3.98 3.85 3.98 3.63 0 5.85-2.99 5.85-7.39v-6.19z" fill="#B15A29" stroke="#471408" stroke-miterlimit="10" stroke-width=".7"/>
  <path d="m102.1 92.91c0.6-2.17 2.79-3.3 5.44-3.3" stroke="#F6C588" stroke-linecap="round" stroke-miterlimit="10" stroke-width=".7"/>
  <path d="m124.9 128.6c4.29 0 6.16-7.97 5.91-17.67l-0.36-12.91-2.68 0.48c-2.65 0.51-3.59-0.69-3.02-3.81 0.57-2.89 2.5-3.63 4.76-3.98l-0.14-3.25c-0.47-10.56 3.16-18.74 12.89-18.74 6.89 0 10.15 4.59 10.15 8.42 0 5.36-3.26 7.56-5.36 7.56-2.26 0-3.1-1.17-3.1-2.55s0.57-2.09 1.36-2.55c0.4-0.25 0.2-2.2-2.11-2.2-2.32 0-4.05 2.3-3.85 9l0.13 2.99 4.99-0.99c2.78-0.61 3.78 0.84 3.18 4.19-0.57 3.35-3.73 4.83-7.95 5.24l0.75 10.12c1.04 13.03-2.67 27.05-11.95 27.05-5.35 0-8-3.82-7.73-5.77 0.18-1.38 0.68-1.68 1.47-1.38 0.66 0.25 1.59 0.75 2.66 0.75z" fill="#471408" stroke="#060000" stroke-miterlimit="10" stroke-width=".7"/>
  <path d="m123 130c6.81 0.88 10.17-6.32 10-18.02l-0.35-16.59-4.62 0.88c-1.94 0.41-2.41-0.2-1.84-2.46 0.5-2.05 2.08-2.4 4.89-2.66l-0.15-5.08c-0.35-8.87 2.68-15.41 10.8-15.41 5.67 0 8.42 3.98 8.42 6.6 0 3.46-1.93 5.25-3.47 5.25-1.01 0-1.58-0.45-1.58-1.44 0.94-1.09 0.67-5.07-3.05-5.07-3.46 0-4.72 3.66-4.55 10.07l0.2 5.59 6.27-1.45c1.93-0.5 2.33 0.31 1.7 2.71-0.75 2.96-3.49 3.56-7.97 3.91l0.79 11.18c0.91 11.95-2.42 24.8-10.54 24.8-3.26 0-5.2-1.85-4.95-2.81z" fill="#B15A29" stroke="#471408" stroke-miterlimit="10" stroke-width=".7"/>
  <path d="m135.3 97.09 0.75 7.72-0.25 8.11" stroke="#F6C588" stroke-linecap="round" stroke-miterlimit="10" stroke-width=".7"/>
  <path d="m163.4 85.62c7.55 0 10.89 6.44 10.55 10.75-0.7 7.64-7.79 13.15-15.44 12.64 1.8 3.25 4.32 4.41 6.66 4.11 2.88-0.36 4.55-2.21 6.59-4.44 1.79-1.85 4.21-0.82 3.99 2.81-0.35 5.72-6.38 11.2-13.19 10.52-8.99-0.99-14.73-8.1-14.73-16.62 0-9.69 6.58-19.77 15.57-19.77zm0.15 7.45c-3.26-0.61-6.3 3.84-6.65 10.22 5.35-0.98 8.42-4.58 8.57-7.34 0.1-1.38-0.55-2.61-1.92-2.88z" fill="#471408" stroke="#060000" stroke-miterlimit="10" stroke-width=".7"/>
  <path d="m162.8 87.56c6.12 0 8.93 5.31 8.59 9.07-0.75 7.14-7.92 11.09-15.67 10.38 1.57 5.3 5.1 7.92 9.2 7.51 3.85-0.41 5.32-2.26 7.38-4.78 1.37-1.78 2.03-0.62 1.56 2.07-1.11 5.23-6.13 8.42-11.03 7.91-8.6-0.99-13.12-7.36-13.12-15.88 0-8.94 5.53-16.28 13.09-16.28zm0.67 3.64c-4.2-0.48-7.39 5.02-7.73 13.41 6.38-0.71 10.34-5.59 10.49-8.7 0.1-2.15-0.74-4.45-2.76-4.71z" fill="#B15A29" stroke="#471408" stroke-miterlimit="10" stroke-width=".7"/>
  <path d="m160.5 90.06-0.4 0.66" stroke="#F6C588" stroke-linecap="round" stroke-miterlimit="10" stroke-width=".7"/>
  <path d="m155.2 158.2-1.11 1.65" stroke="#F6C588" stroke-linecap="round" stroke-miterlimit="10" stroke-width=".7"/>
  <path d="m99.81 145.2c0 4.34-3 5.54-4.64 5.54-2.32 0-3.46-1.09-3.26-3.14 0.27-1.82-0.92-2.47-2.11-2.4-3.66 0.2-5.07 6.1-4.99 10.49 0.17 5.49 2.5 8.64 5.8 8.64 2.48 0 4.15-1.48 5.62-3.53 1.44-1.79 4.63-0.8 4.23 3.53-0.5 5.1-5.35 9.24-11.35 9.24-8.83 0-13.75-7.97-13.75-17.56 0-9.66 5.83-19.53 15.05-19.53 7.04 0 9.4 4.52 9.4 8.72z" fill="#471408" stroke="#060000" stroke-miterlimit="10" stroke-width=".7"/>
  <path d="m97.55 144.8c0 2.3-1.48 3.68-2.84 3.68-1.01 0-1.18-0.51-1.08-1.25 0.34-2.53-1.59-4.12-3.7-3.92-5.25 0.45-7.02 6.63-7.02 12.32 0 6.57 3.29 11.09 8.11 11.09 3.71 0 5.25-1.95 6.72-4.42 0.75-1.31 1.22-0.53 0.87 1.82-0.69 3.91-4.79 7.33-9.82 7.33-7.82 0-11.88-7.74-11.88-15.98 0-8.72 5.25-17.03 12.72-17.03 5.5 0 7.92 3.2 7.92 6.36z" fill="#B15A29" stroke="#471408" stroke-miterlimit="10" stroke-width=".7"/>
  <path d="m116.2 136.8c8.47 0 13.49 7.43 13.49 17.48 0 9.39-6.07 18.84-14.06 18.84-8.86 0-14.39-8.59-14.39-17.69 0-9.41 5.66-18.63 14.96-18.63zm-0.27 10.26c-3.16 0-5.42 5.06-5.42 8.71 0 4.53 2.11 7.95 4.59 7.95 3.17 0 4.77-5.05 4.77-8.8 0-4.21-1.6-7.86-3.94-7.86z" fill="#471408" stroke="#060000" stroke-miterlimit="10" stroke-width=".7"/>
  <path d="m116.2 138.7c7.55 0 11.27 7.33 11.27 15.3 0 8.43-5.86 16.78-12.5 16.78-8.05 0-11.94-8.18-11.94-15.75 0-8.69 4.82-16.33 13.17-16.33zm1.07 5.87c-4.5 0-7.6 5.54-7.6 11.13 0 5.76 2.95 9.91 5.96 9.91 4.59 0 7.07-6.65 7.07-11.5 0-5.39-2.48-9.54-5.43-9.54z" fill="#B15A29" stroke="#471408" stroke-miterlimit="10" stroke-width=".7"/>
  <path d="m145.7 136.8c8.46 0 13.48 7.43 13.48 17.48 0 9.39-6.06 18.84-14.05 18.84-8.86 0-12.99-8.59-12.99-17.69 0-9.41 5.66-18.63 13.56-18.63zm2.48 9.38c-3.57-0.71-6.76 3.92-6.76 9.51 0 5.39 2.11 7.98 4.21 7.98 2.97 0 4.41-4.8 4.41-8.45 0-4.35-0.84-7.98-1.86-9.04z" fill="#471408" stroke="#060000" stroke-miterlimit="10" stroke-width=".7"/>
  <path d="m146.3 138.7c6.81 0 9.97 7.33 9.97 15.3 0 8.43-5.34 16.78-11.72 16.78-7.89 0-11.15-8.18-11.15-15.75 0-8.69 5.24-16.33 12.9-16.33zm2.48 5.87c-4.4-0.33-8.25 4.52-8.25 10.9 0 6.01 2.65 10.14 5.53 10.14 4.39 0 6.32-5.88 6.32-10.73 0-5.2-1.77-9.47-3.6-10.31z" fill="#B15A29" stroke="#471408" stroke-miterlimit="10" stroke-width=".7"/>
  <path d="m160.2 140.5c-1.47-2.05-0.1-4.45 4.22-4.45 3.64 0 6.19 2.25 7.07 4.68 2.11-2.82 4.79-4.48 8.15-4.48 6.94 0 11.03 4.86 10.56 12.56l-0.84 8.93c-0.62 6.54 0.74 10.89 3.91 11.51 2.03 0.41 1.88 4.62-4.4 6.07-6.2 1.45-10.72-2.69-10.12-11.59l0.74-8.11c0.34-3.98-0.7-7.23-2.81-7.23-3.17 0-4.43 6.38-4.18 12.04l0.4 7.98c0.27 3.05-1.6 5.25-5.89 5.25-3.16 0-5.27-1.48-4.92-4.41l1.1-12.19c0.5-6.54-0.34-12.39-2.99-16.56z" fill="#471408" stroke="#060000" stroke-miterlimit="10" stroke-width=".7"/>
  <path d="m162 140.1c-0.59-1.56 1.58-2.81 3.05-2.4 2.78 0.81 5.2 3.17 5.4 7.37 1.47-3.73 4.93-7.65 8.09-7.65 5.53 0 9.62 4.45 9.09 12.17-1.27 8.04-1.45 15.08 0.6 20" fill="#B15A29" stroke="#471408" stroke-miterlimit="10" stroke-width=".7"/>
  <path d="m182.2 138.7c2.48 2.83 2.95 9.58 1.84 15.98l-0.57 8.9c-0.27 3.5 1.09 6.66 2.95 8.11" stroke="#F6C588" stroke-linecap="round" stroke-miterlimit="10" stroke-width=".7"/>
</svg>